<?xml version="1.0" standalone="no"?>
<!DOCTYPE svg PUBLIC "-//W3C//DTD SVG 20010904//EN"
 "http://www.w3.org/TR/2001/REC-SVG-20010904/DTD/svg10.dtd">
<svg version="1.0" xmlns="http://www.w3.org/2000/svg"
 width="512.000000pt" height="512.000000pt" viewBox="0 0 512.000000 512.000000"
 preserveAspectRatio="xMidYMid meet">
<metadata>
Created by potrace 1.14, written by Peter Selinger 2001-2017
</metadata>
<g transform="translate(0.000000,512.000000) scale(0.100000,-0.100000)"
fill="#000000" stroke="none">
<path d="M176 3552 c-6 -10 -63 -301 -72 -367 -3 -27 -8 -52 -9 -55 -2 -3 -6
-33 -10 -65 -4 -33 -8 -71 -11 -85 -9 -54 -5 -250 6 -306 16 -76 65 -169 107
-201 28 -22 115 -63 165 -80 37 -12 47 -62 55 -284 11 -296 9 -337 -16 -393
-11 -26 -25 -45 -30 -42 -13 8 -192 -33 -219 -50 -15 -10 -22 -23 -20 -37 l3
-22 346 -3 c302 -2 348 0 353 13 16 42 -10 56 -154 86 -97 20 -119 31 -125 65
-2 10 -4 19 -5 19 -12 0 -13 87 -6 308 8 244 12 285 31 313 14 21 55 51 55 40
0 -2 31 10 68 29 106 51 151 113 176 245 13 66 14 244 2 335 -4 28 -9 68 -11
90 -3 22 -7 51 -10 65 -2 14 -7 41 -10 60 -14 87 -58 297 -66 313 -9 16 -34
17 -299 17 -159 0 -291 -3 -294 -8z"/>
<path d="M1140 3422 l-22 -18 0 -841 c0 -464 3 -847 7 -853 14 -22 49 -28 68
-12 16 14 17 68 17 861 0 465 -4 851 -8 857 -14 20 -41 23 -62 6z"/>
<path d="M1880 3283 c-202 -34 -373 -193 -415 -386 -31 -144 9 -340 89 -434
33 -39 67 -73 72 -73 4 0 14 -8 23 -18 22 -25 115 -68 186 -86 69 -19 201 -21
277 -5 91 19 237 104 238 139 0 8 -18 31 -41 52 l-41 38 -42 -34 c-61 -49 -79
-58 -161 -73 -41 -8 -133 -7 -174 1 -99 20 -208 101 -251 187 -72 141 -54 331
43 439 68 77 186 127 300 128 95 0 168 -22 238 -74 l50 -37 32 29 c58 53 59
56 29 86 -46 46 -141 96 -212 112 -64 15 -180 19 -240 9z"/>
<path d="M4353 3275 c-144 -31 -286 -147 -350 -285 -63 -138 -58 -318 15 -454
39 -74 144 -175 223 -213 88 -42 169 -57 287 -51 88 5 216 36 232 56 3 4 18
14 35 22 48 24 128 111 162 176 112 210 77 453 -86 614 -73 72 -146 112 -243
135 -77 18 -192 18 -275 0z m253 -129 c12 -2 45 -16 74 -31 130 -66 197 -182
201 -350 2 -61 -37 -170 -83 -230 -30 -39 -113 -103 -141 -110 -7 -1 -19 -5
-27 -8 -67 -27 -169 -28 -260 -4 -58 15 -70 20 -70 29 0 5 -4 7 -9 4 -14 -9
-107 86 -135 137 -92 169 -52 387 91 497 73 55 162 82 258 76 44 -3 90 -7 101
-10z"/>
<path d="M2568 3273 c-3 -7 -2 -965 1 -985 0 -5 33 -8 71 -8 l70 0 0 500 0
500 -69 0 c-39 0 -71 -3 -73 -7z"/>
<path d="M3010 2780 l0 -501 72 3 73 3 -1 148 -1 147 151 0 c93 0 177 6 219
15 129 27 218 89 264 182 24 50 27 69 27 148 0 49 -5 107 -13 128 -19 56 -82
128 -143 165 -85 51 -160 62 -420 62 l-228 0 0 -500z m400 369 c41 -1 93 -8
116 -16 53 -18 113 -68 130 -109 18 -43 18 -145 0 -189 -16 -38 -57 -81 -87
-90 -11 -4 -19 -11 -19 -16 0 -5 -3 -8 -7 -7 -5 1 -25 -2 -46 -6 -30 -7 -262
-11 -327 -7 -14 1 -16 30 -15 219 l0 217 85 5 c47 3 87 4 90 3 3 -1 39 -3 80
-4z"/>
<path d="M1463 2024 c-16 -7 -18 -194 -3 -194 6 0 10 14 10 30 0 28 2 30 38
30 31 0 40 -5 54 -30 9 -17 22 -30 27 -30 6 0 2 14 -9 32 -19 31 -19 32 1 56
39 51 10 102 -61 108 -25 2 -51 1 -57 -2z m104 -38 c16 -18 18 -27 10 -42 -15
-28 -28 -34 -69 -34 l-38 0 0 50 0 50 38 0 c28 0 44 -7 59 -24z"/>
<path d="M1648 2020 c-1 -3 -2 -47 -2 -97 l-1 -93 67 0 c39 0 68 4 68 10 0 6
-26 10 -58 10 l-58 0 0 35 0 35 53 0 c29 0 53 4 53 10 0 6 -23 9 -53 7 l-53
-2 2 30 c1 17 2 33 3 37 0 3 16 6 34 6 60 -1 80 2 73 10 -9 8 -125 11 -128 2z"/>
<path d="M1836 2011 c-17 -19 -21 -49 -8 -67 4 -6 24 -16 44 -23 48 -16 65
-36 48 -56 -14 -17 -75 -20 -85 -5 -4 6 -11 7 -17 4 -18 -11 22 -34 59 -34 35
0 73 29 73 56 0 23 -20 38 -67 52 -72 21 -50 81 24 67 29 -5 35 -4 27 5 -20
20 -80 20 -98 1z"/>
<path d="M1964 2018 c-6 -9 -1 -10 39 -10 l27 -1 0 -88 c0 -115 18 -116 22 -1
3 79 5 87 23 88 11 1 26 2 34 3 8 1 11 4 7 8 -10 10 -146 11 -152 1z"/>
<path d="M2196 2022 c-3 -6 5 -30 19 -54 34 -59 32 -68 -15 -68 l-39 0 19 42
c18 41 18 64 -1 53 -5 -4 -9 -14 -9 -24 0 -9 -7 -26 -15 -37 -8 -10 -15 -27
-15 -36 0 -10 -4 -18 -9 -18 -5 0 -11 -11 -13 -25 -3 -14 -1 -25 4 -25 5 0 13
11 18 25 9 22 15 25 64 25 49 0 54 -2 60 -25 4 -14 13 -25 22 -25 13 0 14 3 0
28 -8 15 -27 56 -42 92 -31 74 -39 86 -48 72z"/>
<path d="M2327 2023 c-3 -5 -4 -42 -3 -82 2 -63 6 -77 25 -92 35 -29 100 -20
123 15 11 17 9 154 -2 161 -6 4 -10 -23 -10 -74 0 -87 -9 -101 -63 -101 -38 0
-50 24 -53 101 -2 69 -7 89 -17 72z"/>
<path d="M2539 2011 c-2 -80 1 -174 6 -179 12 -12 24 22 14 40 -9 16 -5 18 30
18 34 0 43 -5 58 -30 9 -16 23 -30 31 -30 9 0 7 9 -8 30 l-21 29 21 29 c15 21
19 36 14 56 -8 34 -35 48 -96 50 -38 2 -48 -1 -49 -13z m108 -11 c1 0 7 -9 13
-21 18 -32 -11 -69 -54 -69 -18 0 -39 7 -46 15 -7 8 -8 15 -3 15 6 0 9 12 7
27 -5 44 4 47 83 33z"/>
<path d="M2786 2005 c-9 -13 -16 -27 -16 -29 0 -3 -13 -34 -30 -68 -16 -34
-30 -65 -30 -70 0 -17 17 -7 28 17 11 24 16 26 70 23 36 -2 57 -7 57 -15 0
-19 22 -37 29 -24 4 6 2 11 -3 11 -6 0 -10 3 -9 8 1 8 -4 22 -43 110 -15 34
-30 62 -32 62 -3 0 -12 -11 -21 -25z m24 -17 c0 -1 8 -21 19 -43 19 -39 19
-40 0 -43 -10 -2 -30 -2 -43 0 l-25 3 21 48 c11 26 23 46 25 43 3 -2 4 -6 3
-8z"/>
<path d="M2934 2022 c-5 -4 -9 -49 -9 -99 0 -71 3 -93 14 -93 10 0 12 17 9 75
-2 41 -1 75 2 75 3 0 32 -34 63 -75 32 -41 62 -75 68 -75 5 0 9 44 9 100 0
120 -18 136 -22 20 l-3 -80 -61 79 c-33 44 -65 76 -70 73z"/>
<path d="M3120 2018 c0 -4 15 -8 33 -10 l32 -3 1 -75 c2 -94 2 -100 12 -100 4
0 8 39 7 88 l0 87 33 3 c62 6 31 19 -43 18 -41 0 -75 -4 -75 -8z"/>
<path d="M3396 2014 c-19 -18 -20 -28 -5 -56 9 -16 7 -23 -10 -35 -41 -28 -17
-93 34 -93 13 0 36 5 50 12 22 10 28 9 35 -2 5 -8 12 -11 16 -7 4 3 2 13 -5
21 -7 8 -9 26 -6 43 6 27 6 27 -9 9 -16 -19 -16 -19 -40 3 l-24 22 25 25 c22
22 23 27 11 46 -18 27 -52 32 -72 12z m61 -20 c2 -7 -4 -19 -13 -29 -15 -15
-19 -15 -32 -1 -20 20 -8 48 20 44 12 -2 23 -8 25 -14z m6 -135 c-6 -6 -26 -9
-44 -7 -40 4 -50 29 -23 59 18 20 18 19 48 -10 22 -22 27 -34 19 -42z"/>
<path d="M3610 2018 c0 -26 56 -182 67 -185 5 -2 20 25 32 59 39 111 36 109
57 48 10 -30 19 -57 20 -60 1 -3 5 -15 9 -27 4 -13 11 -23 16 -23 8 0 28 31
26 40 -2 6 31 100 43 121 9 17 4 29 -12 29 -4 0 -7 -3 -6 -7 0 -5 -2 -16 -5
-25 -18 -46 -20 -54 -24 -72 -9 -49 -20 -49 -38 0 -36 97 -45 115 -53 110 -4
-2 -19 -39 -32 -80 -13 -42 -26 -76 -30 -76 -3 0 -17 34 -29 75 -22 70 -41
104 -41 73z"/>
<path d="M3928 2025 c-9 -15 -8 -195 2 -195 4 0 9 17 11 38 5 52 -5 169 -13
157z"/>
<path d="M4008 2024 c-7 -42 -2 -194 7 -191 6 2 10 34 9 75 -1 83 0 83 73 -13
26 -36 52 -63 58 -62 13 4 12 180 -2 184 -6 2 -10 -22 -9 -67 1 -38 -2 -70 -5
-70 -4 0 -25 24 -47 53 -56 73 -82 102 -84 91z"/>
<path d="M4226 2021 c-2 -3 -4 -48 -4 -98 l1 -93 68 0 c39 0 69 4 69 10 0 6
-26 10 -58 10 l-58 0 -1 35 -1 35 49 0 c27 0 49 5 49 10 0 6 -22 10 -48 10
-49 0 -49 0 -48 33 1 28 4 32 31 33 17 1 40 2 53 3 12 0 22 4 22 9 0 8 -119
11 -124 3z"/>
<path d="M4484 2018 c-9 -14 -11 -167 -3 -180 10 -16 128 -5 140 13 14 22 11
55 -6 69 -11 9 -13 16 -5 24 14 14 13 39 -3 60 -15 20 -113 31 -123 14z m103
-23 c21 -22 15 -44 -14 -51 -16 -3 -33 -7 -39 -9 -24 -7 -38 15 -35 57 1 20
68 23 88 3z m7 -81 c9 -3 16 -16 16 -29 0 -27 -17 -35 -71 -35 -39 0 -41 2
-41 40 0 11 0 22 1 25 1 7 76 6 95 -1z"/>
<path d="M4695 1934 c-50 -107 -49 -104 -35 -104 6 0 15 11 20 25 9 23 15 25
65 25 50 0 56 -2 65 -25 8 -21 30 -36 30 -21 0 11 -90 196 -95 196 -3 0 -26
-43 -50 -96z m81 1 l14 -35 -44 0 -45 0 21 51 c23 54 24 54 54 -16z"/>
<path d="M4873 1929 c0 -55 4 -99 8 -99 9 0 13 22 10 48 -1 7 11 12 31 12 25
0 39 -8 60 -32 32 -39 48 -33 17 6 l-21 27 21 23 c24 26 27 54 7 81 -14 20
-29 24 -92 29 l-40 4 -1 -99z m112 61 c37 -31 4 -80 -54 -80 l-37 0 -1 49 -2
48 40 -2 c22 -2 46 -8 54 -15z"/>
</g>
</svg>
