<?xml version="1.0" standalone="no"?>
<!DOCTYPE svg PUBLIC "-//W3C//DTD SVG 20010904//EN"
 "http://www.w3.org/TR/2001/REC-SVG-20010904/DTD/svg10.dtd">
<svg version="1.0" xmlns="http://www.w3.org/2000/svg"
 width="1587.000000pt" height="1587.000000pt" viewBox="0 0 1587.000000 1587.000000"
 preserveAspectRatio="xMidYMid meet">
<metadata>
Created by potrace 1.14, written by Peter Selinger 2001-2017
</metadata>
<g transform="translate(0.000000,1587.000000) scale(0.100000,-0.100000)"
fill="#000000" stroke="none">
<path d="M3537 10514 c-1 -1 -69 -5 -152 -8 -150 -7 -181 -9 -285 -21 -92 -11
-106 -13 -268 -40 -18 -3 -65 -12 -105 -21 -309 -66 -549 -174 -700 -313 -50
-47 -107 -144 -146 -251 -25 -71 -228 -859 -246 -955 -14 -80 -19 -137 -18
-218 3 -233 116 -362 399 -458 60 -21 121 -40 135 -43 13 -2 44 -9 69 -15 64
-14 99 -20 150 -27 24 -3 47 -7 50 -9 3 -2 41 -6 85 -10 44 -4 89 -9 100 -11
123 -23 862 -23 1006 1 13 2 51 6 84 10 33 3 87 10 120 15 33 5 78 12 100 15
87 13 326 76 439 115 301 104 424 203 525 423 38 82 52 113 57 132 1 6 14 48
28 95 14 47 30 108 36 135 6 28 13 58 16 68 5 16 -33 17 -732 15 l-737 -3 -53
-208 c-58 -226 -90 -303 -139 -327 -40 -20 -239 -25 -275 -7 -23 12 -25 18
-23 67 1 30 25 147 53 260 29 113 54 213 56 223 2 9 6 25 8 35 54 233 180 704
200 749 38 84 69 97 227 98 135 0 144 -4 141 -68 -1 -32 -101 -462 -128 -548
-4 -15 57 -16 733 -15 l737 1 33 130 c45 178 49 194 59 262 33 221 -22 382
-162 474 -129 85 -411 179 -613 204 -23 3 -55 7 -70 9 -62 11 -236 26 -361 32
-121 6 -429 11 -433 8z"/>
<path d="M12857 10404 c-1 -1 -76 -4 -167 -8 -91 -3 -178 -8 -195 -10 -16 -3
-52 -7 -80 -10 -100 -11 -142 -18 -244 -38 -57 -11 -115 -22 -127 -24 -57 -10
-266 -85 -334 -119 -292 -147 -338 -224 -490 -833 -105 -419 -128 -544 -124
-651 8 -161 171 -302 447 -385 62 -19 130 -37 151 -40 21 -4 48 -8 60 -11 36
-8 74 -14 144 -21 37 -3 70 -8 73 -10 13 -7 270 -18 459 -18 179 0 351 7 443
18 15 2 55 7 90 11 34 3 69 8 77 10 8 2 40 7 70 10 30 4 58 9 61 11 3 2 21 6
40 9 282 49 580 190 693 328 41 50 104 186 131 283 41 143 186 723 191 764 3
25 8 48 10 51 8 14 18 119 17 185 -2 73 -16 110 -68 179 -27 37 -112 102 -178
139 -92 50 -288 110 -437 133 -19 3 -42 6 -50 8 -15 2 -111 14 -165 21 -78 9
-490 24 -498 18z m77 -452 c17 -2 18 -8 13 -54 -3 -29 -36 -174 -72 -323 -37
-148 -68 -277 -70 -285 -2 -8 -10 -42 -19 -75 -9 -33 -19 -69 -21 -80 -9 -41
-48 -201 -53 -215 -3 -8 -6 -19 -7 -25 -14 -58 -41 -137 -58 -168 -16 -28 -30
-40 -59 -48 -53 -14 -165 -9 -179 7 -15 19 -6 74 48 289 24 99 46 187 48 195
2 8 29 116 59 240 31 124 59 235 62 248 30 139 69 247 96 269 32 25 108 34
212 25z"/>
<path d="M7791 9685 c-6 -8 -98 -361 -116 -445 -2 -8 -15 -62 -30 -120 -15
-58 -28 -112 -30 -120 -2 -8 -93 -377 -204 -820 -110 -442 -196 -807 -192
-810 5 -3 335 -5 732 -5 l724 0 12 25 c6 14 14 39 16 55 3 17 8 37 11 45 3 8
7 26 10 40 2 14 14 61 25 106 12 45 23 90 25 100 2 10 16 66 31 124 15 58 28
110 29 115 1 6 17 72 36 148 l34 137 281 1 c154 0 303 2 330 4 233 15 274 19
350 30 17 3 48 7 70 10 144 21 336 81 431 135 117 67 226 240 259 409 2 9 14
66 28 126 41 174 45 200 41 277 -5 122 -50 199 -157 265 -90 57 -217 100 -352
118 -22 3 -47 8 -55 10 -8 2 -40 7 -70 10 -30 3 -77 8 -105 11 -208 21 -461
26 -1343 28 -532 1 -816 -2 -821 -9z m1495 -489 c44 -2 97 -11 118 -20 36 -15
38 -17 32 -55 -6 -44 -51 -228 -65 -263 -22 -58 -76 -89 -177 -103 -56 -7
-154 -9 -160 -2 -3 3 7 51 21 108 15 57 28 111 30 119 11 52 47 189 55 207 7
18 15 22 37 18 15 -2 64 -7 109 -9z"/>
<path d="M5412 8567 c-78 -314 -144 -581 -147 -592 -2 -11 -38 -155 -80 -320
-41 -165 -77 -309 -79 -320 -2 -11 -7 -27 -10 -35 -3 -8 -8 -26 -10 -40 -3
-14 -28 -116 -56 -228 -27 -111 -50 -206 -50 -211 0 -6 299 -9 735 -9 404 0
735 1 735 3 0 2 81 329 181 727 99 397 182 730 184 738 2 8 49 197 105 420 56
223 103 413 105 423 4 16 -37 17 -733 17 l-737 0 -143 -573z"/>
<path d="M8479 6110 c-83 -23 -116 -90 -79 -160 10 -19 7 -26 -24 -56 -45 -43
-50 -91 -18 -146 30 -51 151 -76 239 -49 17 5 34 7 37 4 3 -3 32 -6 65 -7 64
-1 64 -2 19 50 -17 19 -17 24 -4 55 8 19 16 50 18 69 l3 35 -52 3 -53 3 0 -32
0 -33 -28 28 -29 27 39 38 c40 41 49 81 28 122 -21 38 -106 64 -161 49z m59
-104 c2 -10 -1 -23 -8 -30 -14 -14 -41 19 -33 40 8 20 37 13 41 -10z m-7 -227
c-32 -12 -71 13 -71 46 0 38 13 37 51 -2 30 -31 34 -39 20 -44z"/>
<path d="M4126 5912 c1 -109 2 -202 3 -207 1 -10 295 -14 305 -4 3 2 8 25 11
50 l6 46 -78 0 c-123 1 -122 1 -118 21 2 9 4 22 4 27 1 6 29 9 68 8 98 -2 101
-1 99 55 l-1 47 -82 0 c-46 -1 -83 2 -84 5 -7 49 -12 47 88 46 l93 -1 0 50 0
51 -158 1 -157 1 1 -196z"/>
<path d="M4809 5921 c-33 -102 -65 -194 -70 -203 -11 -20 -11 -20 76 -21 48
-1 50 1 60 31 9 32 9 32 77 32 68 0 69 0 75 -30 3 -20 12 -30 24 -31 63 -4
111 -3 115 2 4 6 -112 363 -126 389 -6 11 -29 15 -89 16 l-80 1 -62 -186z
m181 -52 c0 -3 -16 -5 -35 -6 -39 -1 -40 3 -24 62 18 71 21 72 40 10 10 -33
19 -62 19 -66z"/>
<path d="M5389 6101 c-6 -44 -4 -101 5 -104 6 -2 32 -3 59 -2 26 1 48 -4 48
-9 1 -6 2 -74 3 -150 l1 -140 67 0 67 -1 0 80 c-1 44 -1 112 0 151 l1 71 58
-1 57 -1 0 55 0 55 -182 1 c-101 1 -183 -1 -184 -5z"/>
<path d="M6059 6106 c-1 0 -2 -92 -3 -203 -1 -131 2 -204 9 -206 19 -6 295 -1
301 6 4 4 9 26 11 50 l5 44 -95 -1 -95 -1 -5 28 c-2 15 1 27 7 28 6 0 45 1 87
1 l76 1 -1 51 -1 51 -78 0 c-56 0 -80 4 -86 14 -19 31 -1 39 80 37 44 -1 85 1
90 5 6 3 9 26 7 50 l-3 44 -152 1 c-84 1 -154 1 -154 0z"/>
<path d="M6680 5902 l0 -207 53 2 c28 0 57 2 63 2 7 1 12 21 12 54 0 78 0 79
25 75 16 -2 31 -20 54 -67 l32 -65 66 0 c36 -1 65 3 65 7 0 4 -18 41 -41 82
-35 64 -38 76 -25 81 42 16 60 118 31 174 -26 51 -65 63 -207 66 l-128 2 0
-206z m215 92 c10 -10 13 -24 9 -38 -9 -28 -5 -26 -55 -32 l-44 -5 2 43 c0 24
2 44 2 46 4 10 73 -1 86 -14z"/>
<path d="M7290 6104 c0 -2 13 -27 28 -56 104 -191 107 -199 107 -277 l0 -75
68 0 67 -1 0 77 c0 73 3 81 52 175 28 54 57 107 65 118 25 37 17 43 -54 41
l-68 -1 -29 -72 c-25 -62 -31 -70 -41 -55 -7 9 -15 28 -18 42 -4 14 -15 39
-26 56 -18 30 -22 31 -85 32 -36 0 -66 -2 -66 -4z"/>
<path d="M9395 6086 c8 -27 45 -175 51 -201 2 -11 14 -58 27 -105 l23 -84 63
-1 c34 0 66 2 70 5 4 3 16 46 26 95 9 50 20 96 24 103 4 8 13 -18 21 -60 8
-40 15 -80 17 -88 2 -8 4 -23 5 -32 3 -21 -3 -20 77 -22 55 -1 65 1 72 19 5
11 29 100 54 199 25 98 47 182 50 186 3 4 -28 7 -69 7 -46 0 -73 -4 -73 -11 0
-6 -3 -29 -7 -51 -21 -130 -29 -165 -35 -165 -4 0 -8 6 -8 13 0 6 -6 39 -12
72 -7 33 -15 74 -17 90 -3 17 -11 35 -19 40 -10 9 -71 12 -106 6 -4 -1 -12
-29 -19 -63 -7 -35 -14 -72 -16 -83 -3 -11 -8 -38 -13 -60 l-8 -40 -8 50 c-5
28 -10 52 -10 55 -1 3 -5 30 -9 60 -13 84 -15 87 -91 87 -63 0 -66 -1 -60 -21z"/>
<path d="M10270 5901 l0 -207 58 2 c31 1 62 3 67 3 7 1 10 72 10 203 l0 203
-67 1 -68 1 0 -206z"/>
<path d="M10729 6101 c-1 -3 -2 -96 -3 -206 l-1 -201 60 1 60 1 3 104 3 105
68 -105 68 -105 46 1 c26 1 52 2 57 3 7 1 9 71 8 204 l-3 202 -60 0 -60 0 1
-97 c0 -54 -1 -98 -3 -98 -1 0 -32 44 -68 97 l-65 98 -55 1 c-30 1 -56 -1 -56
-5z"/>
<path d="M11420 5901 l0 -206 155 0 c170 0 161 -3 166 60 3 41 1 43 -78 43
-115 0 -113 -1 -113 27 0 28 1 28 108 28 65 -1 65 -1 65 52 0 51 2 50 -85 50
-82 0 -83 0 -86 27 l-3 26 73 0 c121 -1 113 -4 113 50 l1 48 -158 0 -158 1 0
-206z"/>
</g>
</svg>
